<svg width="608" height="134" viewBox="0 0 608 134" fill="none" xmlns="http://www.w3.org/2000/svg">
    <mask id="path-1-outside-1_120_6" maskUnits="userSpaceOnUse" x="0" y="-4.76837e-07" width="608" height="134" fill="black">
        <rect fill="white" y="-4.76837e-07" width="608" height="134"/>
        <path d="M66.7402 57.7948C78.9612 59.4422 85.0717 65.2907 85.0717 75.3403C85.0717 82.6715 82.1204 88.8496 76.2177 93.8743C70.3151 98.8167 62.8744 101.288 53.8957 101.288H10L28.5809 14.7958H66.2414C73.1417 14.7958 78.7534 16.6492 83.0764 20.356C87.4826 23.9805 89.6857 28.3051 89.6857 33.3298C89.6857 39.9197 87.6489 45.3564 83.5752 49.6398C79.5016 53.8408 73.8899 56.5592 66.7402 57.7948ZM62.3756 32.712H45.2912L41.6748 49.3927H58.7592C62.0015 49.3927 64.7034 48.4042 66.8649 46.4272C69.1096 44.4503 70.2319 42.0202 70.2319 39.1372C70.2319 37.1602 69.5668 35.5951 68.2367 34.4419C66.9065 33.2887 64.9528 32.712 62.3756 32.712ZM34.4419 83.3717H52.3993C55.6416 83.3717 58.3435 82.3832 60.505 80.4063C62.6666 78.3469 63.7473 75.8757 63.7473 72.9927C63.7473 71.0981 63.0823 69.5742 61.7521 68.4209C60.4219 67.2677 58.5098 66.6911 56.0157 66.6911H38.0584L34.4419 83.3717Z"/>
        <path d="M94.5316 71.3864L101.764 37.0366H121.717L113.861 73.8576C113.196 77.0702 113.653 79.6649 115.232 81.6419C116.895 83.5365 119.431 84.4838 122.839 84.4838C126.082 84.4838 128.95 83.4953 131.444 81.5183C134.021 79.5414 135.642 76.9878 136.307 73.8576L144.164 37.0366H164.116L155.761 76.3288C154.015 84.7309 149.942 91.1972 143.54 95.7277C137.222 100.258 129.449 102.524 120.221 102.524C110.993 102.524 103.926 99.5993 99.021 93.7508C94.116 87.9023 92.6195 80.4475 94.5316 71.3864Z"/>
        <path d="M191.532 95.8513L219.341 37.0366H240.79L198.266 126H176.817L188.913 101.288H173.948L168.462 37.0366H188.664L191.532 95.8513Z"/>
        <path d="M273.783 101.288H252.583L267.173 33.3298H241.609L245.6 14.7958H317.928L313.937 33.3298H288.373L273.783 101.288Z"/>
        <path d="M305.778 74.4754C305.778 63.9316 309.685 54.8705 317.5 47.2921C325.398 39.6314 334.834 35.801 345.808 35.801C354.87 35.801 362.227 38.3546 367.88 43.4618C373.534 48.4866 376.36 55.2824 376.36 63.8492C376.36 74.393 372.453 83.4953 364.638 91.156C356.823 98.7344 347.471 102.524 336.58 102.524C327.435 102.524 319.994 100.011 314.258 94.9864C308.605 89.8792 305.778 83.0422 305.778 74.4754ZM326.479 72.8691C326.479 76.3288 327.476 79.1295 329.472 81.2712C331.55 83.4129 334.294 84.4838 337.702 84.4838C342.607 84.4838 346.805 82.5892 350.297 78.8C353.872 74.9284 355.659 70.4803 355.659 65.4555C355.659 61.9958 354.62 59.1951 352.542 57.0534C350.547 54.9117 347.845 53.8408 344.436 53.8408C339.531 53.8408 335.291 55.7766 331.716 59.6482C328.225 63.4373 326.479 67.8443 326.479 72.8691Z"/>
        <path d="M410.908 101.288H389.708L404.299 33.3298H378.735L382.725 14.7958H455.053L451.063 33.3298H425.498L410.908 101.288Z"/>
        <path d="M472.708 37.0366L469.341 52.3581C473.082 44.6974 477.322 39.755 482.06 37.5309C486.799 35.3068 491.455 35.1421 496.027 37.0366L492.037 55.5707C485.885 53.0995 480.356 52.8524 475.451 54.8293C470.546 56.8063 467.553 60.3895 466.472 65.5791L458.865 101.288H438.913L452.755 37.0366H472.708Z"/>
        <path d="M506.626 19.7382C506.626 16.5257 507.79 13.7661 510.118 11.4597C512.446 9.15323 515.231 8 518.473 8C521.715 8 524.5 9.15323 526.828 11.4597C529.156 13.7661 530.32 16.5257 530.32 19.7382C530.32 22.8684 529.156 25.6279 526.828 28.0168C524.5 30.3232 521.715 31.4764 518.473 31.4764C515.231 31.4764 512.446 30.3232 510.118 28.0168C507.79 25.6279 506.626 22.8684 506.626 19.7382ZM510.866 101.288H490.913L504.756 37.0366H524.708L510.866 101.288Z"/>
        <path d="M578.676 35.801C585.16 35.801 590.315 38.1899 594.139 42.9675C598.046 47.7452 600 54.2115 600 62.3665C600 73.1574 596.675 82.548 590.024 90.5382C583.373 98.5284 575.558 102.524 566.579 102.524C561.841 102.524 557.601 100.711 553.86 97.0869C550.202 93.4625 547.998 88.6024 547.25 82.5068L537.898 126H517.945L537.025 37.0366H556.977L553.485 53.5937C556.562 48.1571 560.303 43.8325 564.709 40.6199C569.198 37.4073 573.854 35.801 578.676 35.801ZM561.965 84.4838C566.621 84.4838 570.653 82.5892 574.062 78.8C577.553 74.9284 579.299 70.4803 579.299 65.4555C579.299 62.0782 578.302 59.3187 576.306 57.177C574.311 54.9529 571.775 53.8408 568.699 53.8408C563.545 53.8408 559.139 55.7766 555.481 59.6482C551.906 63.4373 550.119 67.8443 550.119 72.8691C550.119 76.3288 551.158 79.1295 553.236 81.2712C555.398 83.4129 558.307 84.4838 561.965 84.4838Z"/>
    </mask>
    <path d="M66.7402 57.7948C78.9612 59.4422 85.0717 65.2907 85.0717 75.3403C85.0717 82.6715 82.1204 88.8496 76.2177 93.8743C70.3151 98.8167 62.8744 101.288 53.8957 101.288H10L28.5809 14.7958H66.2414C73.1417 14.7958 78.7534 16.6492 83.0764 20.356C87.4826 23.9805 89.6857 28.3051 89.6857 33.3298C89.6857 39.9197 87.6489 45.3564 83.5752 49.6398C79.5016 53.8408 73.8899 56.5592 66.7402 57.7948ZM62.3756 32.712H45.2912L41.6748 49.3927H58.7592C62.0015 49.3927 64.7034 48.4042 66.8649 46.4272C69.1096 44.4503 70.2319 42.0202 70.2319 39.1372C70.2319 37.1602 69.5668 35.5951 68.2367 34.4419C66.9065 33.2887 64.9528 32.712 62.3756 32.712ZM34.4419 83.3717H52.3993C55.6416 83.3717 58.3435 82.3832 60.505 80.4063C62.6666 78.3469 63.7473 75.8757 63.7473 72.9927C63.7473 71.0981 63.0823 69.5742 61.7521 68.4209C60.4219 67.2677 58.5098 66.6911 56.0157 66.6911H38.0584L34.4419 83.3717Z" fill="white"/>
    <path d="M94.5316 71.3864L101.764 37.0366H121.717L113.861 73.8576C113.196 77.0702 113.653 79.6649 115.232 81.6419C116.895 83.5365 119.431 84.4838 122.839 84.4838C126.082 84.4838 128.95 83.4953 131.444 81.5183C134.021 79.5414 135.642 76.9878 136.307 73.8576L144.164 37.0366H164.116L155.761 76.3288C154.015 84.7309 149.942 91.1972 143.54 95.7277C137.222 100.258 129.449 102.524 120.221 102.524C110.993 102.524 103.926 99.5993 99.021 93.7508C94.116 87.9023 92.6195 80.4475 94.5316 71.3864Z" fill="white"/>
    <path d="M191.532 95.8513L219.341 37.0366H240.79L198.266 126H176.817L188.913 101.288H173.948L168.462 37.0366H188.664L191.532 95.8513Z" fill="white"/>
    <path d="M273.783 101.288H252.583L267.173 33.3298H241.609L245.6 14.7958H317.928L313.937 33.3298H288.373L273.783 101.288Z" fill="white"/>
    <path d="M305.778 74.4754C305.778 63.9316 309.685 54.8705 317.5 47.2921C325.398 39.6314 334.834 35.801 345.808 35.801C354.87 35.801 362.227 38.3546 367.88 43.4618C373.534 48.4866 376.36 55.2824 376.36 63.8492C376.36 74.393 372.453 83.4953 364.638 91.156C356.823 98.7344 347.471 102.524 336.58 102.524C327.435 102.524 319.994 100.011 314.258 94.9864C308.605 89.8792 305.778 83.0422 305.778 74.4754ZM326.479 72.8691C326.479 76.3288 327.476 79.1295 329.472 81.2712C331.55 83.4129 334.294 84.4838 337.702 84.4838C342.607 84.4838 346.805 82.5892 350.297 78.8C353.872 74.9284 355.659 70.4803 355.659 65.4555C355.659 61.9958 354.62 59.1951 352.542 57.0534C350.547 54.9117 347.845 53.8408 344.436 53.8408C339.531 53.8408 335.291 55.7766 331.716 59.6482C328.225 63.4373 326.479 67.8443 326.479 72.8691Z" fill="white"/>
    <path d="M410.908 101.288H389.708L404.299 33.3298H378.735L382.725 14.7958H455.053L451.063 33.3298H425.498L410.908 101.288Z" fill="white"/>
    <path d="M472.708 37.0366L469.341 52.3581C473.082 44.6974 477.322 39.755 482.06 37.5309C486.799 35.3068 491.455 35.1421 496.027 37.0366L492.037 55.5707C485.885 53.0995 480.356 52.8524 475.451 54.8293C470.546 56.8063 467.553 60.3895 466.472 65.5791L458.865 101.288H438.913L452.755 37.0366H472.708Z" fill="white"/>
    <path d="M506.626 19.7382C506.626 16.5257 507.79 13.7661 510.118 11.4597C512.446 9.15323 515.231 8 518.473 8C521.715 8 524.5 9.15323 526.828 11.4597C529.156 13.7661 530.32 16.5257 530.32 19.7382C530.32 22.8684 529.156 25.6279 526.828 28.0168C524.5 30.3232 521.715 31.4764 518.473 31.4764C515.231 31.4764 512.446 30.3232 510.118 28.0168C507.79 25.6279 506.626 22.8684 506.626 19.7382ZM510.866 101.288H490.913L504.756 37.0366H524.708L510.866 101.288Z" fill="white"/>
    <path d="M578.676 35.801C585.16 35.801 590.315 38.1899 594.139 42.9675C598.046 47.7452 600 54.2115 600 62.3665C600 73.1574 596.675 82.548 590.024 90.5382C583.373 98.5284 575.558 102.524 566.579 102.524C561.841 102.524 557.601 100.711 553.86 97.0869C550.202 93.4625 547.998 88.6024 547.25 82.5068L537.898 126H517.945L537.025 37.0366H556.977L553.485 53.5937C556.562 48.1571 560.303 43.8325 564.709 40.6199C569.198 37.4073 573.854 35.801 578.676 35.801ZM561.965 84.4838C566.621 84.4838 570.653 82.5892 574.062 78.8C577.553 74.9284 579.299 70.4803 579.299 65.4555C579.299 62.0782 578.302 59.3187 576.306 57.177C574.311 54.9529 571.775 53.8408 568.699 53.8408C563.545 53.8408 559.139 55.7766 555.481 59.6482C551.906 63.4373 550.119 67.8443 550.119 72.8691C550.119 76.3288 551.158 79.1295 553.236 81.2712C555.398 83.4129 558.307 84.4838 561.965 84.4838Z" fill="white"/>
    <path d="M66.7402 57.7948C78.9612 59.4422 85.0717 65.2907 85.0717 75.3403C85.0717 82.6715 82.1204 88.8496 76.2177 93.8743C70.3151 98.8167 62.8744 101.288 53.8957 101.288H10L28.5809 14.7958H66.2414C73.1417 14.7958 78.7534 16.6492 83.0764 20.356C87.4826 23.9805 89.6857 28.3051 89.6857 33.3298C89.6857 39.9197 87.6489 45.3564 83.5752 49.6398C79.5016 53.8408 73.8899 56.5592 66.7402 57.7948ZM62.3756 32.712H45.2912L41.6748 49.3927H58.7592C62.0015 49.3927 64.7034 48.4042 66.8649 46.4272C69.1096 44.4503 70.2319 42.0202 70.2319 39.1372C70.2319 37.1602 69.5668 35.5951 68.2367 34.4419C66.9065 33.2887 64.9528 32.712 62.3756 32.712ZM34.4419 83.3717H52.3993C55.6416 83.3717 58.3435 82.3832 60.505 80.4063C62.6666 78.3469 63.7473 75.8757 63.7473 72.9927C63.7473 71.0981 63.0823 69.5742 61.7521 68.4209C60.4219 67.2677 58.5098 66.6911 56.0157 66.6911H38.0584L34.4419 83.3717Z" stroke="black" stroke-width="16" mask="url(#path-1-outside-1_120_6)"/>
    <path d="M94.5316 71.3864L101.764 37.0366H121.717L113.861 73.8576C113.196 77.0702 113.653 79.6649 115.232 81.6419C116.895 83.5365 119.431 84.4838 122.839 84.4838C126.082 84.4838 128.95 83.4953 131.444 81.5183C134.021 79.5414 135.642 76.9878 136.307 73.8576L144.164 37.0366H164.116L155.761 76.3288C154.015 84.7309 149.942 91.1972 143.54 95.7277C137.222 100.258 129.449 102.524 120.221 102.524C110.993 102.524 103.926 99.5993 99.021 93.7508C94.116 87.9023 92.6195 80.4475 94.5316 71.3864Z" stroke="black" stroke-width="16" mask="url(#path-1-outside-1_120_6)"/>
    <path d="M191.532 95.8513L219.341 37.0366H240.79L198.266 126H176.817L188.913 101.288H173.948L168.462 37.0366H188.664L191.532 95.8513Z" stroke="black" stroke-width="16" mask="url(#path-1-outside-1_120_6)"/>
    <path d="M273.783 101.288H252.583L267.173 33.3298H241.609L245.6 14.7958H317.928L313.937 33.3298H288.373L273.783 101.288Z" stroke="black" stroke-width="16" mask="url(#path-1-outside-1_120_6)"/>
    <path d="M305.778 74.4754C305.778 63.9316 309.685 54.8705 317.5 47.2921C325.398 39.6314 334.834 35.801 345.808 35.801C354.87 35.801 362.227 38.3546 367.88 43.4618C373.534 48.4866 376.36 55.2824 376.36 63.8492C376.36 74.393 372.453 83.4953 364.638 91.156C356.823 98.7344 347.471 102.524 336.58 102.524C327.435 102.524 319.994 100.011 314.258 94.9864C308.605 89.8792 305.778 83.0422 305.778 74.4754ZM326.479 72.8691C326.479 76.3288 327.476 79.1295 329.472 81.2712C331.55 83.4129 334.294 84.4838 337.702 84.4838C342.607 84.4838 346.805 82.5892 350.297 78.8C353.872 74.9284 355.659 70.4803 355.659 65.4555C355.659 61.9958 354.62 59.1951 352.542 57.0534C350.547 54.9117 347.845 53.8408 344.436 53.8408C339.531 53.8408 335.291 55.7766 331.716 59.6482C328.225 63.4373 326.479 67.8443 326.479 72.8691Z" stroke="black" stroke-width="16" mask="url(#path-1-outside-1_120_6)"/>
    <path d="M410.908 101.288H389.708L404.299 33.3298H378.735L382.725 14.7958H455.053L451.063 33.3298H425.498L410.908 101.288Z" stroke="black" stroke-width="16" mask="url(#path-1-outside-1_120_6)"/>
    <path d="M472.708 37.0366L469.341 52.3581C473.082 44.6974 477.322 39.755 482.06 37.5309C486.799 35.3068 491.455 35.1421 496.027 37.0366L492.037 55.5707C485.885 53.0995 480.356 52.8524 475.451 54.8293C470.546 56.8063 467.553 60.3895 466.472 65.5791L458.865 101.288H438.913L452.755 37.0366H472.708Z" stroke="black" stroke-width="16" mask="url(#path-1-outside-1_120_6)"/>
    <path d="M506.626 19.7382C506.626 16.5257 507.79 13.7661 510.118 11.4597C512.446 9.15323 515.231 8 518.473 8C521.715 8 524.5 9.15323 526.828 11.4597C529.156 13.7661 530.32 16.5257 530.32 19.7382C530.32 22.8684 529.156 25.6279 526.828 28.0168C524.5 30.3232 521.715 31.4764 518.473 31.4764C515.231 31.4764 512.446 30.3232 510.118 28.0168C507.79 25.6279 506.626 22.8684 506.626 19.7382ZM510.866 101.288H490.913L504.756 37.0366H524.708L510.866 101.288Z" stroke="black" stroke-width="16" mask="url(#path-1-outside-1_120_6)"/>
    <path d="M578.676 35.801C585.16 35.801 590.315 38.1899 594.139 42.9675C598.046 47.7452 600 54.2115 600 62.3665C600 73.1574 596.675 82.548 590.024 90.5382C583.373 98.5284 575.558 102.524 566.579 102.524C561.841 102.524 557.601 100.711 553.86 97.0869C550.202 93.4625 547.998 88.6024 547.25 82.5068L537.898 126H517.945L537.025 37.0366H556.977L553.485 53.5937C556.562 48.1571 560.303 43.8325 564.709 40.6199C569.198 37.4073 573.854 35.801 578.676 35.801ZM561.965 84.4838C566.621 84.4838 570.653 82.5892 574.062 78.8C577.553 74.9284 579.299 70.4803 579.299 65.4555C579.299 62.0782 578.302 59.3187 576.306 57.177C574.311 54.9529 571.775 53.8408 568.699 53.8408C563.545 53.8408 559.139 55.7766 555.481 59.6482C551.906 63.4373 550.119 67.8443 550.119 72.8691C550.119 76.3288 551.158 79.1295 553.236 81.2712C555.398 83.4129 558.307 84.4838 561.965 84.4838Z" stroke="black" stroke-width="16" mask="url(#path-1-outside-1_120_6)"/>
</svg>
